<svg width="23" height="23" viewBox="0 0 23 23" fill="none" xmlns="http://www.w3.org/2000/svg">
<path d="M22.2243 11.6259C22.286 11.5339 22.3277 11.43 22.3467 11.3209C22.3657 11.2117 22.3615 11.0998 22.3346 10.9924C22.3076 10.8849 22.2585 10.7844 22.1902 10.6971C22.122 10.6099 22.0362 10.538 21.9385 10.4861L20.3518 9.63086L11.5529 14.2939C11.4378 14.355 11.3095 14.3869 11.1792 14.3869C11.0489 14.3869 10.9206 14.355 10.8055 14.2939L2.00658 9.63086L0.419916 10.4861C0.322164 10.538 0.236396 10.6099 0.16816 10.6971C0.0999234 10.7844 0.0507405 10.8849 0.0237936 10.9924C-0.00315329 11.0998 -0.0072638 11.2117 0.0117281 11.3209C0.0307201 11.43 0.0723912 11.5339 0.134045 11.6259L11.1792 17.4791L22.2243 11.6259Z" fill="#2F2F2F"/>
<path d="M21.9385 15.2825L20.3518 14.4272L11.5529 19.0903C11.4378 19.1514 11.3095 19.1833 11.1792 19.1833C11.0489 19.1833 10.9206 19.1514 10.8055 19.0903L2.00658 14.4272L0.419914 15.2825C0.293148 15.351 0.187251 15.4525 0.113444 15.5763C0.0396373 15.7002 0.000669479 15.8417 0.000669479 15.9859C0.000669479 16.1301 0.0396373 16.2716 0.113444 16.3954C0.187251 16.5192 0.293148 16.6208 0.419914 16.6892L10.8007 22.2843C10.917 22.347 11.0471 22.3798 11.1792 22.3798C11.3113 22.3798 11.4414 22.347 11.5577 22.2843L21.9385 16.6892C22.0652 16.6208 22.1711 16.5192 22.2449 16.3954C22.3187 16.2716 22.3577 16.1301 22.3577 15.9859C22.3577 15.8417 22.3187 15.7002 22.2449 15.5763C22.1711 15.4525 22.0652 15.351 21.9385 15.2825Z" fill="#2F2F2F"/>
<path d="M11.1792 12.6836L22.2243 6.83034C22.286 6.73835 22.3277 6.63443 22.3467 6.52529C22.3657 6.41616 22.3615 6.30426 22.3346 6.19682C22.3076 6.08938 22.2585 5.9888 22.1902 5.90159C22.122 5.81438 22.0362 5.74248 21.9385 5.69055L11.5577 0.0954956C11.4414 0.0328121 11.3113 0 11.1792 0C11.0471 0 10.917 0.0328121 10.8007 0.0954956L0.419916 5.69055C0.322164 5.74248 0.236396 5.81438 0.16816 5.90159C0.0999234 5.9888 0.0507405 6.08938 0.0237936 6.19682C-0.00315329 6.30426 -0.0072638 6.41616 0.0117281 6.52529C0.0307201 6.63443 0.0723912 6.73835 0.134045 6.83034L11.1792 12.6836Z" fill="#2F2F2F"/>
</svg>
