<svg width="138" height="21" viewBox="0 0 138 21" fill="none" xmlns="http://www.w3.org/2000/svg">
<path d="M0.523438 1.73633H3.90234L8.04297 11.5898L9 13.9727L9.75195 11.5898L11.2754 7.99609L8.53125 1.73633H11.7148L12.8379 4.71484L13.8828 1.73633H17.0664L14.3223 7.99609L15.875 11.668L16.8125 13.9727L17.5352 11.6289L21.6953 1.73633H25.0742L18.3359 17H15.2695L13.9121 13.9727L12.8086 11.0332L11.7051 13.9727L10.3281 17H7.26172L0.523438 1.73633ZM26.5293 11.1992C26.5293 10.418 26.6888 9.67253 27.0078 8.96289C27.3268 8.24674 27.7858 7.61523 28.3848 7.06836C28.9837 6.52148 29.7161 6.08529 30.582 5.75977C31.4544 5.43424 32.444 5.27148 33.5508 5.27148C34.651 5.27148 35.6406 5.4375 36.5195 5.76953C37.4049 6.09505 38.1536 6.54427 38.7656 7.11719C39.3841 7.6901 39.8561 8.36393 40.1816 9.13867C40.5137 9.91341 40.6797 10.7435 40.6797 11.6289C40.6797 11.7396 40.6764 11.86 40.6699 11.9902C40.6699 12.1139 40.6634 12.2279 40.6504 12.332H29.752C29.8757 12.6771 30.0742 12.9928 30.3477 13.2793C30.6276 13.5658 30.9759 13.8132 31.3926 14.0215C31.8092 14.2298 32.291 14.3926 32.8379 14.5098C33.3848 14.6204 33.9902 14.6758 34.6543 14.6758C35.3184 14.6758 35.9792 14.6074 36.6367 14.4707C37.2943 14.3275 37.9225 14.1484 38.5215 13.9336L39.498 16.1406C39.1204 16.3164 38.7363 16.4727 38.3457 16.6094C37.9616 16.7396 37.5579 16.8503 37.1348 16.9414C36.7181 17.026 36.2786 17.0911 35.8164 17.1367C35.3607 17.1823 34.8789 17.2051 34.3711 17.2051C33.0755 17.2051 31.9395 17.0488 30.9629 16.7363C29.9863 16.4238 29.1693 15.9974 28.5117 15.457C27.8542 14.9167 27.3594 14.2819 27.0273 13.5527C26.6953 12.8236 26.5293 12.0391 26.5293 11.1992ZM37.6133 10.0762C37.5091 9.75716 37.3464 9.46094 37.125 9.1875C36.9102 8.90755 36.64 8.66667 36.3145 8.46484C35.9889 8.25651 35.6113 8.09375 35.1816 7.97656C34.752 7.85938 34.2799 7.80078 33.7656 7.80078C33.2188 7.80078 32.7207 7.86263 32.2715 7.98633C31.8223 8.11003 31.4284 8.27604 31.0898 8.48438C30.7513 8.69271 30.4681 8.93359 30.2402 9.20703C30.0189 9.48047 29.8561 9.77018 29.752 10.0762H37.6133ZM43.7168 0.798828H46.6074V6.56055C46.8613 6.38477 47.1608 6.21875 47.5059 6.0625C47.8509 5.90625 48.222 5.76953 48.6191 5.65234C49.0163 5.53516 49.4264 5.44401 49.8496 5.37891C50.2728 5.30729 50.696 5.27148 51.1191 5.27148C52.0957 5.27148 52.9909 5.41471 53.8047 5.70117C54.625 5.98763 55.3281 6.39128 55.9141 6.91211C56.5 7.43294 56.9557 8.05794 57.2812 8.78711C57.6133 9.50977 57.7793 10.3105 57.7793 11.1895C57.7793 12.1074 57.6068 12.9375 57.2617 13.6797C56.9167 14.4154 56.4382 15.0469 55.8262 15.5742C55.2207 16.0951 54.498 16.4987 53.6582 16.7852C52.8249 17.0651 51.9199 17.2051 50.9434 17.2051C50.5267 17.2051 50.1133 17.179 49.7031 17.127C49.2995 17.0749 48.9089 17.0033 48.5312 16.9121C48.1602 16.821 47.8086 16.7135 47.4766 16.5898C47.151 16.4596 46.8613 16.3197 46.6074 16.1699V17H43.7168V0.798828ZM46.6074 13.377C46.9004 13.6113 47.2096 13.8099 47.5352 13.9727C47.8607 14.1354 48.1927 14.2689 48.5312 14.373C48.8698 14.4772 49.2116 14.5553 49.5566 14.6074C49.9017 14.653 50.237 14.6758 50.5625 14.6758C51.2266 14.6758 51.8158 14.5879 52.3301 14.4121C52.8509 14.2298 53.2871 13.9824 53.6387 13.6699C53.9967 13.3574 54.2702 12.9896 54.459 12.5664C54.6478 12.1432 54.7422 11.6842 54.7422 11.1895C54.7422 10.7272 54.6478 10.291 54.459 9.88086C54.2767 9.4707 54.0098 9.11263 53.6582 8.80664C53.3132 8.49414 52.8932 8.25 52.3984 8.07422C51.9102 7.89193 51.36 7.80078 50.748 7.80078C50.3574 7.80078 49.9668 7.83984 49.5762 7.91797C49.1855 7.98958 48.8079 8.09375 48.4434 8.23047C48.0853 8.36719 47.7467 8.5332 47.4277 8.72852C47.1152 8.92383 46.8418 9.14193 46.6074 9.38281V13.377Z" fill="#C6D3FF"/>
<path d="M67.0084 17.12C65.9551 17.12 64.9818 16.9467 64.0884 16.6C63.1951 16.24 62.4218 15.74 61.7684 15.1C61.1151 14.46 60.6018 13.7067 60.2284 12.84C59.8684 11.9733 59.6884 11.0267 59.6884 10C59.6884 8.97333 59.8684 8.02667 60.2284 7.16C60.6018 6.29333 61.1151 5.54 61.7684 4.9C62.4351 4.26 63.2151 3.76667 64.1084 3.42C65.0018 3.06 65.9751 2.88 67.0284 2.88C68.0418 2.88 68.9951 3.05333 69.8884 3.4C70.7818 3.73333 71.5351 4.24 72.1484 4.92L71.2084 5.86C70.6351 5.27333 70.0018 4.85333 69.3084 4.6C68.6151 4.33333 67.8684 4.2 67.0684 4.2C66.2284 4.2 65.4484 4.34667 64.7284 4.64C64.0084 4.92 63.3818 5.32667 62.8484 5.86C62.3151 6.38 61.8951 6.99333 61.5884 7.7C61.2951 8.39333 61.1484 9.16 61.1484 10C61.1484 10.84 61.2951 11.6133 61.5884 12.32C61.8951 13.0133 62.3151 13.6267 62.8484 14.16C63.3818 14.68 64.0084 15.0867 64.7284 15.38C65.4484 15.66 66.2284 15.8 67.0684 15.8C67.8684 15.8 68.6151 15.6667 69.3084 15.4C70.0018 15.1333 70.6351 14.7067 71.2084 14.12L72.1484 15.06C71.5351 15.74 70.7818 16.2533 69.8884 16.6C68.9951 16.9467 68.0351 17.12 67.0084 17.12ZM75.0034 17V6.5H76.3634V9.36L76.2234 8.86C76.5168 8.06 77.0101 7.45333 77.7034 7.04C78.3968 6.61333 79.2568 6.4 80.2834 6.4V7.78C80.2301 7.78 80.1768 7.78 80.1234 7.78C80.0701 7.76667 80.0168 7.76 79.9634 7.76C78.8568 7.76 77.9901 8.1 77.3634 8.78C76.7368 9.44667 76.4234 10.4 76.4234 11.64V17H75.0034ZM88.6733 17V14.68L88.6133 14.3V10.42C88.6133 9.52667 88.3599 8.84 87.8533 8.36C87.3599 7.88 86.6199 7.64 85.6333 7.64C84.9533 7.64 84.3066 7.75333 83.6933 7.98C83.0799 8.20667 82.5599 8.50667 82.1333 8.88L81.4933 7.82C82.0266 7.36667 82.6666 7.02 83.4133 6.78C84.1599 6.52667 84.9466 6.4 85.7733 6.4C87.1333 6.4 88.1799 6.74 88.9133 7.42C89.6599 8.08667 90.0333 9.10667 90.0333 10.48V17H88.6733ZM85.0533 17.1C84.2666 17.1 83.5799 16.9733 82.9933 16.72C82.4199 16.4533 81.9799 16.0933 81.6733 15.64C81.3666 15.1733 81.2133 14.64 81.2133 14.04C81.2133 13.4933 81.3399 13 81.5933 12.56C81.8599 12.1067 82.2866 11.7467 82.8733 11.48C83.4733 11.2 84.2733 11.06 85.2733 11.06H88.8933V12.12H85.3133C84.2999 12.12 83.5933 12.3 83.1933 12.66C82.8066 13.02 82.6133 13.4667 82.6133 14C82.6133 14.6 82.8466 15.08 83.3133 15.44C83.7799 15.8 84.4333 15.98 85.2733 15.98C86.0733 15.98 86.7599 15.8 87.3333 15.44C87.9199 15.0667 88.3466 14.5333 88.6133 13.84L88.9333 14.82C88.6666 15.5133 88.1999 16.0667 87.5333 16.48C86.8799 16.8933 86.0533 17.1 85.0533 17.1ZM94.1302 17V5.18C94.1302 4.24667 94.4035 3.49333 94.9502 2.92C95.4968 2.34667 96.2835 2.06 97.3102 2.06C97.7102 2.06 98.0968 2.11333 98.4702 2.22C98.8435 2.32667 99.1568 2.49333 99.4102 2.72L98.9302 3.78C98.7302 3.60667 98.4968 3.48 98.2302 3.4C97.9635 3.30667 97.6768 3.26 97.3702 3.26C96.7702 3.26 96.3102 3.42667 95.9902 3.76C95.6702 4.09333 95.5102 4.58667 95.5102 5.24V6.84L95.5502 7.5V17H94.1302ZM92.2502 7.68V6.5H98.7502V7.68H92.2502ZM103.988 17.1C103.001 17.1 102.241 16.8333 101.708 16.3C101.174 15.7667 100.908 15.0133 100.908 14.04V4.18H102.328V13.96C102.328 14.5733 102.481 15.0467 102.788 15.38C103.108 15.7133 103.561 15.88 104.148 15.88C104.774 15.88 105.294 15.7 105.708 15.34L106.208 16.36C105.928 16.6133 105.588 16.8 105.188 16.92C104.801 17.04 104.401 17.1 103.988 17.1ZM99.0275 7.68V6.5H105.528V7.68H99.0275ZM112.881 17.1C111.788 17.1 110.828 16.8733 110.001 16.42C109.175 15.9533 108.528 15.32 108.061 14.52C107.595 13.7067 107.361 12.78 107.361 11.74C107.361 10.7 107.581 9.78 108.021 8.98C108.475 8.18 109.088 7.55333 109.861 7.1C110.648 6.63333 111.528 6.4 112.501 6.4C113.488 6.4 114.361 6.62667 115.121 7.08C115.895 7.52 116.501 8.14667 116.941 8.96C117.381 9.76 117.601 10.6867 117.601 11.74C117.601 11.8067 117.595 11.88 117.581 11.96C117.581 12.0267 117.581 12.1 117.581 12.18H108.441V11.12H116.821L116.261 11.54C116.261 10.78 116.095 10.1067 115.761 9.52C115.441 8.92 115.001 8.45333 114.441 8.12C113.881 7.78667 113.235 7.62 112.501 7.62C111.781 7.62 111.135 7.78667 110.561 8.12C109.988 8.45333 109.541 8.92 109.221 9.52C108.901 10.12 108.741 10.8067 108.741 11.58V11.8C108.741 12.6 108.915 13.3067 109.261 13.92C109.621 14.52 110.115 14.9933 110.741 15.34C111.381 15.6733 112.108 15.84 112.921 15.84C113.561 15.84 114.155 15.7267 114.701 15.5C115.261 15.2733 115.741 14.9267 116.141 14.46L116.941 15.38C116.475 15.94 115.888 16.3667 115.181 16.66C114.488 16.9533 113.721 17.1 112.881 17.1ZM120.492 17V6.5H121.852V9.36L121.712 8.86C122.005 8.06 122.498 7.45333 123.192 7.04C123.885 6.61333 124.745 6.4 125.772 6.4V7.78C125.718 7.78 125.665 7.78 125.612 7.78C125.558 7.76667 125.505 7.76 125.452 7.76C124.345 7.76 123.478 8.1 122.852 8.78C122.225 9.44667 121.912 10.4 121.912 11.64V17H120.492ZM128.892 20.98C128.399 20.98 127.925 20.9 127.472 20.74C127.032 20.58 126.652 20.34 126.332 20.02L126.992 18.96C127.259 19.2133 127.545 19.4067 127.852 19.54C128.172 19.6867 128.525 19.76 128.912 19.76C129.379 19.76 129.779 19.6267 130.112 19.36C130.459 19.1067 130.785 18.6533 131.092 18L131.772 16.46L131.932 16.24L136.252 6.5H137.652L132.392 18.26C132.099 18.94 131.772 19.48 131.412 19.88C131.065 20.28 130.685 20.56 130.272 20.72C129.859 20.8933 129.399 20.98 128.892 20.98ZM131.692 17.3L126.852 6.5H128.332L132.612 16.14L131.692 17.3Z" fill="white"/>
</svg>
