<svg width="15" height="17" viewBox="0 0 15 17" fill="none" xmlns="http://www.w3.org/2000/svg">
<path d="M1.32412 14.8506L0 0H14.5495L13.2236 14.8482L7.26589 16.5L1.32412 14.8506Z" fill="#E44F26"/>
<path d="M7.27478 15.2376L12.0892 13.9029L13.2219 1.21436H7.27478V15.2376Z" fill="#F1662A"/>
<path d="M7.27476 6.72222H4.86458L4.6984 4.85713H7.27476V3.03564H7.26828H2.70779L2.7514 3.52475L3.19867 8.5437H7.27476V6.72222Z" fill="#EBEBEB"/>
<path d="M7.27477 11.4523L7.26652 11.4546L5.2382 10.9072L5.10855 9.45459H4.12268H3.28L3.53516 12.3138L7.26652 13.3498L7.27477 13.3474V11.4523Z" fill="#EBEBEB"/>
<path d="M7.26825 6.72217V8.54365H9.51107L9.30011 10.9061L7.26825 11.4541V13.3493L11.0026 12.3139L11.0297 12.0063L11.4575 7.21128L11.5023 6.72217H11.0114H7.26825Z" fill="white"/>
<path d="M7.26822 3.03564V4.16707V4.853V4.85713H11.6619H11.6678L11.7044 4.44816L11.7875 3.52475L11.8311 3.03564H7.26822Z" fill="white"/>
</svg>
