<svg width="13" height="13" viewBox="0 0 13 13" fill="none" xmlns="http://www.w3.org/2000/svg">
<g clip-path="url(#clip0_808_984)">
<rect width="13" height="13" fill="white"/>
<path d="M0 13H13V0H0V13Z" fill="#F0D91F"/>
<path d="M6.5 0H0V13H6.5V0Z" fill="#D1BD1B"/>
<path d="M10.7164 10.0906C10.5782 9.57007 9.49706 9.44873 8.75769 8.89623C8.01019 8.39248 7.83198 7.17373 8.44948 6.47444C8.66073 6.21444 9.00956 6.01944 9.37573 5.93007L9.75761 5.88186C10.497 5.86507 10.9514 6.06007 11.2927 6.44194C11.3913 6.5389 11.4639 6.63694 11.6101 6.86444C11.2196 7.10765 11.2196 7.10765 10.6595 7.47382C10.5371 7.21382 10.3421 7.05132 10.1308 6.98632C9.80581 6.88882 9.39144 6.9939 9.31019 7.34382C9.27823 7.44944 9.28581 7.54694 9.3351 7.72569C9.46673 8.02632 9.90981 8.15632 10.3085 8.34319C11.4541 8.80848 11.8398 9.30628 11.9351 9.8994L11.9102 9.86311C12.0001 10.375 11.8858 10.7081 11.8701 10.7569C11.4471 12.2031 9.09081 12.2519 8.14831 11.3012C7.95331 11.0737 7.82331 10.96 7.70956 10.7005L8.70081 10.1312C8.96894 10.5375 9.21215 10.7574 9.65144 10.8549C10.2451 10.9275 10.8464 10.7244 10.7164 10.0906ZM4.4054 10.2786C4.4146 10.2786 4.44006 10.3279 4.47419 10.3847C4.6004 10.5954 4.70927 10.7417 4.92377 10.8479C5.13285 10.9134 5.59327 10.9611 5.77202 10.5879C5.88035 10.3999 5.84623 9.78673 5.84623 9.1194C5.84623 8.06803 5.8511 7.02478 5.8511 5.97503H7.06877L7.06606 6.00536C7.06606 7.12661 7.07256 8.23973 7.06606 9.35232C7.06931 10.0435 7.12727 10.661 6.85102 11.1647C6.65981 11.5542 6.29419 11.8061 5.87006 11.929C5.21844 12.0753 4.59606 11.9859 4.13294 11.7097C3.82202 11.5228 3.58098 11.2292 3.41577 10.8879L4.4054 10.2786Z" fill="black"/>
<path d="M9.9975 6C9.96933 6 9.94008 6.00054 9.91083 6.00108L9.52896 6.04929C9.16279 6.13867 8.81396 6.33367 8.60271 6.59367C7.98521 7.29296 8.16342 8.51171 8.91092 9.01546C8.91742 9.02033 8.92446 9.02521 8.93096 9.03062H11.4898C11.2455 8.83346 10.9124 8.6455 10.4617 8.46242C10.0625 8.27554 9.61996 8.14554 9.48833 7.84492C9.43904 7.66617 9.43146 7.56867 9.46342 7.46304C9.52571 7.19546 9.78246 7.07087 10.0457 7.07087C10.1264 7.07087 10.2077 7.08279 10.284 7.10554C10.4953 7.17054 10.6903 7.33304 10.8127 7.59304C11.3728 7.22688 11.3728 7.22688 11.7633 6.98367C11.6171 6.75617 11.5445 6.65867 11.4459 6.56117C11.1182 6.19446 10.686 6 9.9975 6ZM7.22254 6.09425H6.00488C6.00488 7.07467 6.00054 8.04967 6 9.03062H7.222C7.22525 8.06483 7.21983 7.09796 7.21983 6.12458L7.22254 6.09425Z" fill="#212121"/>
</g>
<defs>
<clipPath id="clip0_808_984">
<rect width="13" height="13" fill="white"/>
</clipPath>
</defs>
</svg>
